<svg xmlns="http://www.w3.org/2000/svg" width="512" height="512" viewBox="0 0 512 512" version="1.1">
	<path d="M 19 257.500 L 19 497 258 497 L 497 497 497 257.500 L 497 18 258 18 L 19 18 19 257.500 M 20.465 20.252 C 20.206 20.938, 20.108 128.150, 20.247 258.500 L 20.500 495.500 258 495.500 L 495.500 495.500 495.500 257.500 L 495.500 19.500 258.218 19.252 C 69.342 19.055, 20.840 19.259, 20.465 20.252 M 85.275 45.539 C 66.720 50.537, 51.345 66.062, 46.489 84.703 C 44.549 92.153, 44.592 104.628, 46.584 112.356 C 51.412 131.082, 66.866 146.420, 86.045 151.525 C 107.837 157.324, 132.368 147.422, 145.131 127.676 C 165.099 96.782, 148.384 54.647, 112.540 45.518 C 105.198 43.648, 92.258 43.658, 85.275 45.539 M 244.209 45.556 C 214.213 53.630, 197.047 84.512, 205.854 114.558 C 209.418 126.718, 221.015 140.685, 232.581 146.749 C 263.364 162.888, 300.254 146.894, 310.426 113 C 312.383 106.476, 312.614 92.357, 310.877 85.354 C 306.040 65.848, 290.952 50.609, 271.448 45.528 C 264.208 43.643, 251.268 43.656, 244.209 45.556 M 403.227 45.447 C 388.205 49.085, 374.984 59.904, 368.142 74.159 C 361.740 87.496, 360.559 98.047, 363.975 111.404 C 366.644 121.837, 371.050 129.730, 378.192 136.872 C 399.687 158.367, 433.302 158.423, 455.098 137 C 468.609 123.720, 474.210 103.239, 469.416 84.644 C 464.588 65.918, 449.060 50.376, 430.297 45.489 C 423.445 43.704, 410.506 43.684, 403.227 45.447 M 249 48.119 C 245.975 48.606, 240.285 50.580, 236.355 52.505 C 204.144 68.285, 197.257 108.930, 222.477 134.412 C 241.821 153.958, 273.988 153.884, 293.636 134.248 C 313.822 114.077, 313.789 82.283, 293.562 62.451 C 285.949 54.986, 275.477 49.506, 266 48.029 C 258.599 46.875, 256.667 46.885, 249 48.119 M 337.079 178.583 C 337.127 179.748, 337.364 179.985, 337.683 179.188 C 337.972 178.466, 337.936 177.603, 337.604 177.271 C 337.272 176.939, 337.036 177.529, 337.079 178.583 M 84.750 215.162 L 55 225.167 55 257.527 L 55 289.887 85.632 300.011 C 102.480 305.579, 116.591 309.767, 116.989 309.318 C 117.388 308.868, 125.947 297.075, 136.011 283.111 C 152.876 259.708, 154.204 257.557, 152.991 255.611 C 152.267 254.450, 145.149 244.500, 137.175 233.500 C 129.201 222.500, 121.312 211.588, 119.645 209.250 C 117.979 206.912, 116.139 205.036, 115.557 205.079 C 114.976 205.122, 101.113 209.660, 84.750 215.162 M 243.250 215.105 L 213 225.059 213 257.348 L 213 289.637 243.744 299.789 C 267.733 307.709, 274.742 309.672, 275.642 308.720 C 276.795 307.500, 299.500 276.333, 308.285 263.912 L 312.945 257.324 294.222 231.494 C 283.925 217.287, 275.050 205.548, 274.500 205.407 C 273.950 205.266, 259.887 209.630, 243.250 215.105 M 402.250 215.087 L 372 225.093 372 257.513 L 372 289.932 402.739 299.997 L 433.479 310.063 435.489 307.379 C 436.595 305.903, 445.211 294.076, 454.636 281.097 L 471.773 257.500 468.540 253 C 448.613 225.261, 433.665 205.008, 433.142 205.040 C 432.789 205.062, 418.887 209.583, 402.250 215.087 M 403.500 218.830 L 376.500 227.553 376.500 257.485 L 376.500 287.417 404 296.204 C 419.125 301.036, 431.812 304.880, 432.193 304.745 C 432.761 304.544, 452.265 278.168, 464.254 261.386 L 467.193 257.272 458.347 245.381 C 453.481 238.840, 445.705 228.204, 441.068 221.745 C 436.430 215.285, 432.155 210.024, 431.568 210.054 C 430.980 210.084, 418.350 214.033, 403.500 218.830 M 337.079 336.583 C 337.127 337.748, 337.364 337.985, 337.683 337.188 C 337.972 336.466, 337.936 335.603, 337.604 335.271 C 337.272 334.939, 337.036 335.529, 337.079 336.583 M 203.675 362.658 C 203.304 363.029, 203 387.558, 203 417.167 L 203 471 258.009 471 L 313.017 471 312.759 416.750 L 312.500 362.500 258.425 362.241 C 228.684 362.099, 204.047 362.287, 203.675 362.658 M 362 416.500 L 362 471 416.500 471 L 471 471 471 416.500 L 471 362 416.500 362 L 362 362 362 416.500 M 88.314 378.434 C 82.473 381.153, 78.286 386.462, 77.329 392.360 L 76.738 396 80.877 396 C 84.769 396, 85.111 395.763, 86.609 392.019 C 88.764 386.633, 93.204 383.999, 100.118 384.004 C 107.348 384.009, 111.541 386.580, 112.969 391.885 C 114.671 398.205, 112.244 402.887, 104.149 408.898 C 97.060 414.164, 94.340 417.755, 93.822 422.532 C 93.515 425.359, 93.698 425.514, 97.659 425.803 C 101.568 426.088, 101.858 425.924, 102.482 423.080 C 103.208 419.778, 106 416.588, 113.384 410.624 C 119.950 405.320, 121.992 401.668, 121.996 395.218 C 122.001 388.629, 120.190 384.179, 116.105 380.742 C 109.725 375.373, 97.133 374.328, 88.314 378.434 M 93 438.500 L 93 443 98 443 L 103 443 103 438.500 L 103 434 98 434 L 93 434 93 438.500" stroke="none" fill="black" fill-rule="evenodd"/>
</svg>